<mxfile host="Electron" modified="2023-11-18T06:13:01.267Z" agent="Mozilla/5.0 (Macintosh; Intel Mac OS X 10_15_7) AppleWebKit/537.36 (KHTML, like Gecko) draw.io/22.0.3 Chrome/114.0.5735.289 Electron/25.8.4 Safari/537.36" etag="wnPb6N5ayUmpePg3aSpQ" version="22.0.3" type="device">
  <diagram name="Page-1" id="R_VDegvNw-id1AR24ctY">
    <mxGraphModel dx="2076" dy="834" grid="0" gridSize="10" guides="1" tooltips="1" connect="1" arrows="1" fold="1" page="0" pageScale="1" pageWidth="827" pageHeight="1169" math="0" shadow="0">
      <root>
        <mxCell id="0" />
        <mxCell id="1" parent="0" />
        <mxCell id="JGhVlZoV-6fODX_dazt4-1" value="&lt;font style=&quot;font-size: 40px;&quot;&gt;Рендер изображения&lt;/font&gt;" style="whiteSpace=wrap;html=1;aspect=fixed;" vertex="1" parent="1">
          <mxGeometry x="233" y="208" width="330" height="330" as="geometry" />
        </mxCell>
        <mxCell id="JGhVlZoV-6fODX_dazt4-2" value="" style="endArrow=classic;html=1;rounded=0;entryX=0;entryY=0.25;entryDx=0;entryDy=0;" edge="1" parent="1" target="JGhVlZoV-6fODX_dazt4-1">
          <mxGeometry width="50" height="50" relative="1" as="geometry">
            <mxPoint x="7" y="291" as="sourcePoint" />
            <mxPoint x="-53" y="336" as="targetPoint" />
          </mxGeometry>
        </mxCell>
        <mxCell id="JGhVlZoV-6fODX_dazt4-3" value="&lt;font face=&quot;Times New Roman&quot; style=&quot;font-size: 20px;&quot;&gt;Размеры экрана&lt;/font&gt;" style="edgeLabel;html=1;align=center;verticalAlign=middle;resizable=0;points=[];" vertex="1" connectable="0" parent="JGhVlZoV-6fODX_dazt4-2">
          <mxGeometry x="-0.5887" relative="1" as="geometry">
            <mxPoint x="30" y="-17" as="offset" />
          </mxGeometry>
        </mxCell>
        <mxCell id="JGhVlZoV-6fODX_dazt4-4" value="" style="endArrow=classic;html=1;rounded=0;entryX=0;entryY=0.5;entryDx=0;entryDy=0;" edge="1" parent="1" target="JGhVlZoV-6fODX_dazt4-1">
          <mxGeometry width="50" height="50" relative="1" as="geometry">
            <mxPoint x="6" y="373" as="sourcePoint" />
            <mxPoint x="-37" y="392" as="targetPoint" />
          </mxGeometry>
        </mxCell>
        <mxCell id="JGhVlZoV-6fODX_dazt4-8" value="&lt;font style=&quot;font-size: 20px;&quot; face=&quot;Times New Roman&quot;&gt;камера&lt;/font&gt;" style="edgeLabel;html=1;align=center;verticalAlign=middle;resizable=0;points=[];" vertex="1" connectable="0" parent="JGhVlZoV-6fODX_dazt4-4">
          <mxGeometry x="-0.3933" y="2" relative="1" as="geometry">
            <mxPoint x="-14" y="-15" as="offset" />
          </mxGeometry>
        </mxCell>
        <mxCell id="JGhVlZoV-6fODX_dazt4-5" value="" style="endArrow=classic;html=1;rounded=0;entryX=0;entryY=0.75;entryDx=0;entryDy=0;" edge="1" parent="1" target="JGhVlZoV-6fODX_dazt4-1">
          <mxGeometry width="50" height="50" relative="1" as="geometry">
            <mxPoint x="5" y="459" as="sourcePoint" />
            <mxPoint x="-74" y="463" as="targetPoint" />
          </mxGeometry>
        </mxCell>
        <mxCell id="JGhVlZoV-6fODX_dazt4-9" value="&lt;font face=&quot;Times New Roman&quot; style=&quot;font-size: 20px;&quot;&gt;объекты&lt;/font&gt;" style="edgeLabel;html=1;align=center;verticalAlign=middle;resizable=0;points=[];" vertex="1" connectable="0" parent="JGhVlZoV-6fODX_dazt4-5">
          <mxGeometry x="-0.075" y="1" relative="1" as="geometry">
            <mxPoint x="-51" y="-12" as="offset" />
          </mxGeometry>
        </mxCell>
        <mxCell id="JGhVlZoV-6fODX_dazt4-6" value="" style="endArrow=classic;html=1;rounded=0;entryX=0.5;entryY=0;entryDx=0;entryDy=0;" edge="1" parent="1" target="JGhVlZoV-6fODX_dazt4-1">
          <mxGeometry width="50" height="50" relative="1" as="geometry">
            <mxPoint x="398" y="12" as="sourcePoint" />
            <mxPoint x="390" y="100" as="targetPoint" />
          </mxGeometry>
        </mxCell>
        <mxCell id="JGhVlZoV-6fODX_dazt4-7" value="&lt;font style=&quot;font-size: 20px;&quot; face=&quot;Times New Roman&quot;&gt;закон преломления&lt;/font&gt;" style="edgeLabel;html=1;align=center;verticalAlign=middle;resizable=0;points=[];rotation=-90;" vertex="1" connectable="0" parent="JGhVlZoV-6fODX_dazt4-6">
          <mxGeometry x="0.1582" y="2" relative="1" as="geometry">
            <mxPoint x="-18" y="-23" as="offset" />
          </mxGeometry>
        </mxCell>
        <mxCell id="JGhVlZoV-6fODX_dazt4-10" value="" style="endArrow=classic;html=1;rounded=0;entryX=0.25;entryY=1;entryDx=0;entryDy=0;" edge="1" parent="1" target="JGhVlZoV-6fODX_dazt4-1">
          <mxGeometry width="50" height="50" relative="1" as="geometry">
            <mxPoint x="316" y="821" as="sourcePoint" />
            <mxPoint x="365" y="751" as="targetPoint" />
          </mxGeometry>
        </mxCell>
        <mxCell id="JGhVlZoV-6fODX_dazt4-11" value="&lt;font style=&quot;font-size: 20px;&quot; face=&quot;Times New Roman&quot;&gt;макс. интенсивность луча&lt;/font&gt;" style="edgeLabel;html=1;align=center;verticalAlign=middle;resizable=0;points=[];rotation=-90;" vertex="1" connectable="0" parent="JGhVlZoV-6fODX_dazt4-10">
          <mxGeometry x="-0.7642" y="-3" relative="1" as="geometry">
            <mxPoint x="-23" y="-75" as="offset" />
          </mxGeometry>
        </mxCell>
        <mxCell id="JGhVlZoV-6fODX_dazt4-12" value="" style="endArrow=classic;html=1;rounded=0;entryX=0.5;entryY=1;entryDx=0;entryDy=0;" edge="1" parent="1" target="JGhVlZoV-6fODX_dazt4-1">
          <mxGeometry width="50" height="50" relative="1" as="geometry">
            <mxPoint x="398" y="820" as="sourcePoint" />
            <mxPoint x="418" y="711" as="targetPoint" />
          </mxGeometry>
        </mxCell>
        <mxCell id="JGhVlZoV-6fODX_dazt4-13" value="&lt;font style=&quot;font-size: 20px;&quot; face=&quot;Times New Roman&quot;&gt;макс. количество делений луча&lt;/font&gt;" style="edgeLabel;html=1;align=center;verticalAlign=middle;resizable=0;points=[];rotation=-90;" vertex="1" connectable="0" parent="JGhVlZoV-6fODX_dazt4-12">
          <mxGeometry x="-0.25" y="-1" relative="1" as="geometry">
            <mxPoint x="-17" y="-20" as="offset" />
          </mxGeometry>
        </mxCell>
        <mxCell id="JGhVlZoV-6fODX_dazt4-14" value="" style="endArrow=classic;html=1;rounded=0;entryX=0.75;entryY=1;entryDx=0;entryDy=0;" edge="1" parent="1" target="JGhVlZoV-6fODX_dazt4-1">
          <mxGeometry width="50" height="50" relative="1" as="geometry">
            <mxPoint x="481" y="818" as="sourcePoint" />
            <mxPoint x="588" y="659" as="targetPoint" />
          </mxGeometry>
        </mxCell>
        <mxCell id="JGhVlZoV-6fODX_dazt4-15" value="&lt;font style=&quot;font-size: 20px;&quot; face=&quot;Times New Roman&quot;&gt;размер выборки ячеек RSM&lt;/font&gt;" style="edgeLabel;html=1;align=center;verticalAlign=middle;resizable=0;points=[];rotation=-90;" vertex="1" connectable="0" parent="JGhVlZoV-6fODX_dazt4-14">
          <mxGeometry x="-0.3185" y="-1" relative="1" as="geometry">
            <mxPoint x="-18" y="-31" as="offset" />
          </mxGeometry>
        </mxCell>
        <mxCell id="JGhVlZoV-6fODX_dazt4-16" value="" style="endArrow=classic;html=1;rounded=0;exitX=1;exitY=0.5;exitDx=0;exitDy=0;" edge="1" parent="1" source="JGhVlZoV-6fODX_dazt4-1">
          <mxGeometry width="50" height="50" relative="1" as="geometry">
            <mxPoint x="599" y="413" as="sourcePoint" />
            <mxPoint x="758" y="373" as="targetPoint" />
          </mxGeometry>
        </mxCell>
        <mxCell id="JGhVlZoV-6fODX_dazt4-17" value="&lt;font style=&quot;font-size: 20px;&quot; face=&quot;Times New Roman&quot;&gt;Изображение на&lt;br&gt;экране компьютера&lt;/font&gt;" style="edgeLabel;html=1;align=center;verticalAlign=middle;resizable=0;points=[];" vertex="1" connectable="0" parent="JGhVlZoV-6fODX_dazt4-16">
          <mxGeometry x="-0.0611" y="1" relative="1" as="geometry">
            <mxPoint x="1" y="-28" as="offset" />
          </mxGeometry>
        </mxCell>
      </root>
    </mxGraphModel>
  </diagram>
</mxfile>
